<svg width="14" height="15" viewBox="0 0 14 15" fill="none" xmlns="http://www.w3.org/2000/svg">
<path d="M13.7278 11.9274L12.1757 10.8187L10.796 9.83338C10.5297 9.64356 10.1719 9.70579 9.97531 9.97614L9.12156 11.1521C8.93817 11.4072 8.60827 11.4806 8.34528 11.3246C7.76599 10.9793 7.08095 10.6542 5.56946 9.0327C4.05797 7.41117 3.75263 6.67928 3.43038 6.05861C3.28478 5.77683 3.35322 5.42337 3.59138 5.22691L4.68892 4.31218C4.94122 4.1016 4.99932 3.7182 4.82217 3.43288L3.93077 2.00013L2.86774 0.291677C2.68681 0.000879502 2.32462 -0.0864241 2.04489 0.09331L0.818923 0.881328C0.487602 1.09048 0.244054 1.42821 0.138727 1.8245C-0.196531 3.13414 -0.264123 6.02316 4.05723 10.6532C8.37859 15.2832 11.0748 15.2105 12.2971 14.8513C12.667 14.7385 12.9822 14.4775 13.1774 14.1225L13.9129 12.809C14.0807 12.5093 13.9992 12.1213 13.7278 11.9274Z" fill="white" fill-opacity="0.75"/>
<path d="M7.96499 2.32753C10.2302 2.33023 12.0659 4.29702 12.0684 6.72404C12.0684 6.86686 12.1765 6.98267 12.3098 6.98267C12.4431 6.98267 12.5512 6.86689 12.5512 6.72404C12.5484 4.0115 10.4967 1.81329 7.96502 1.8103C7.83172 1.8103 7.72363 1.92608 7.72363 2.06893C7.72361 2.21172 7.83167 2.32753 7.96499 2.32753Z" fill="white" fill-opacity="0.75"/>
<path d="M7.96502 3.8792C9.43071 3.88104 10.6184 5.15363 10.6201 6.72398C10.6201 6.8668 10.7282 6.98261 10.8615 6.98261C10.9948 6.98261 11.1029 6.86683 11.1029 6.72398C11.1009 4.86807 9.69723 3.36408 7.96502 3.36194C7.83172 3.36194 7.72363 3.47772 7.72363 3.62057C7.72363 3.76342 7.83169 3.8792 7.96502 3.8792Z" fill="white" fill-opacity="0.75"/>
<path d="M7.96499 5.43093C8.63122 5.43178 9.17108 6.01021 9.17188 6.72402C9.17188 6.86684 9.27994 6.98265 9.41327 6.98265C9.54656 6.98265 9.65465 6.86687 9.65465 6.72402C9.65359 5.72468 8.89773 4.91484 7.96502 4.9137C7.83172 4.9137 7.72363 5.02948 7.72363 5.17233C7.72361 5.31515 7.83167 5.43093 7.96499 5.43093Z" fill="white" fill-opacity="0.75"/>
</svg>
