<svg width="20" height="21" viewBox="0 0 20 21" fill="none" xmlns="http://www.w3.org/2000/svg">
<g clip-path="url(#clip0)">
<path d="M19.2954 11.9697C19.8921 7.15644 19.0087 4.11772 17.4154 2.74331L17.4162 2.74251C14.8446 0.395395 6.15958 0.0479987 3.08291 2.84793C1.70124 4.21755 1.21458 6.22766 1.16124 8.71613C1.10791 11.2054 1.04458 15.8685 5.57874 17.1335H5.58291L5.57874 19.0653C5.57874 19.0653 5.54791 19.848 6.06958 20.0053C6.66624 20.1906 6.93624 19.8272 8.79208 17.7029C11.8954 17.9609 14.2787 17.3699 14.5496 17.2836C15.1762 17.0824 18.7221 16.6328 19.2954 11.9697ZM9.09791 16.3437C9.09791 16.3437 7.13374 18.6908 6.52291 19.3001C6.32291 19.4982 6.10374 19.4798 6.10708 19.0869C6.10708 18.8289 6.12208 15.8797 6.12208 15.8797C2.27791 14.8239 2.50458 10.8532 2.54624 8.77603C2.58791 6.69804 2.98458 4.9962 4.15458 3.85019C6.85374 1.42481 14.4679 1.96706 16.4079 3.71442C18.7796 5.72932 17.9354 11.4218 17.9404 11.6159C17.4529 15.5083 14.5796 15.7551 14.0512 15.9236C13.8254 15.9955 11.7296 16.5122 9.09791 16.3437Z" fill="#304763"/>
<path d="M10.185 4.30664C9.86413 4.30664 9.86413 4.78581 10.185 4.7898C12.6741 4.80817 14.7241 6.47088 14.7466 9.52077C14.7466 9.84261 15.2383 9.83862 15.2341 9.51678H15.2333C15.2066 6.2305 12.9683 4.32501 10.185 4.30664Z" fill="#304763"/>
<path d="M13.4595 9.01528C13.4519 9.33312 13.9428 9.3483 13.947 9.02646C13.9878 7.21441 12.8219 5.7218 10.6311 5.56447C10.3103 5.54211 10.2769 6.02527 10.5969 6.04763C12.4969 6.18579 13.4978 7.42843 13.4595 9.01528Z" fill="#304763"/>
<path d="M12.9345 11.0765C12.5228 10.8481 12.1037 10.9903 11.9303 11.2147L11.5678 11.6643C11.3837 11.8927 11.0395 11.8623 11.0395 11.8623C8.52784 11.2259 7.85618 8.70703 7.85618 8.70703C7.85618 8.70703 7.82534 8.36603 8.05534 8.18314L8.50868 7.82377C8.73534 7.65127 8.87868 7.23599 8.64784 6.8279C8.03118 5.76016 7.61701 5.392 7.40618 5.10929C7.18451 4.84335 6.85118 4.78346 6.50451 4.96315H6.49701C5.77617 5.36724 4.98701 6.12353 5.23951 6.90217C5.67034 7.72314 6.46201 10.3402 8.98534 12.3176C10.1712 13.2527 12.0478 14.2111 12.8445 14.4323L12.852 14.4435C13.637 14.6942 14.4003 13.9084 14.8078 13.1968V13.1912C14.9887 12.847 14.9287 12.5212 14.6645 12.308C14.1962 11.8703 13.4895 11.3872 12.9345 11.0765Z" fill="#304763"/>
<path d="M10.9741 7.34695C11.775 7.39168 12.1633 7.79258 12.2049 8.61595C12.2199 8.93779 12.7074 8.91543 12.6924 8.59359C12.6391 7.51866 12.0541 6.91969 11.0008 6.86379C10.68 6.84542 10.65 7.32859 10.9741 7.34695Z" fill="#304763"/>
</g>
<defs>
<clipPath id="clip0">
<rect y="0.875" width="20" height="19.1667" rx="2" fill="white"/>
</clipPath>
</defs>
</svg>
